<?xml version="1.0" encoding="utf-8"?>
<svg viewBox="185.921 187.702 107.555 112.298" xmlns="http://www.w3.org/2000/svg">
  <g transform="matrix(0.88536, 0, 0, 0.88536, 21.306429, 9.650418)">
    <path style="stroke: rgb(0, 0, 0);" d="M 307.321 277.435 C 311.275 319.506 183.124 318.792 185.976 277.435 L 186.551 244.08 L 187.126 239.192 C 187.701 234.303 188.852 224.527 198.341 216.092 C 207.83 207.657 225.658 200.564 244.444 201.139 C 263.231 201.714 282.976 209.958 293.424 218.68 C 303.871 227.402 305.021 236.604 305.596 241.204 L 306.171 245.805 L 307.321 277.435 Z"/>
    <path style="stroke: rgb(0, 0, 0); fill: rgb(255, 213, 0);" d="M 245.027 287.394 C 265.691 287.434 267.276 301.966 267.276 302.003 C 267.276 302.003 246.057 329.308 245.027 327.892 C 243.511 329.106 222.013 302.003 222.013 302.003 C 222.039 301.775 223.347 287.351 245.027 287.394 Z"/>
  </g>
</svg>