<?xml version="1.0" encoding="utf-8"?>
<svg viewBox="185.984 102.933 121.482 126.839" xmlns="http://www.w3.org/2000/svg">
  <g transform="matrix(1, 0, 0, 1, 0.05535, -98.17325)">
    <path style="stroke: rgb(0, 0, 0); fill: rgb(244, 16, 16);" d="M 307.321 277.435 C 311.275 319.506 183.124 318.792 185.976 277.435 L 186.551 244.08 L 187.126 239.192 C 187.701 234.303 188.852 224.527 198.341 216.092 C 207.83 207.657 225.658 200.564 244.444 201.139 C 263.231 201.714 282.976 209.958 293.424 218.68 C 303.871 227.402 305.021 236.604 305.596 241.204 L 306.171 245.805 L 307.321 277.435 Z"/>
    <path style="stroke: rgb(0, 0, 0); fill: rgb(255, 213, 0);" d="M 245.027 287.394 C 265.691 287.434 267.276 301.966 267.276 302.003 C 267.276 302.003 246.057 329.308 245.027 327.892 C 243.511 329.106 222.013 302.003 222.013 302.003 C 222.039 301.775 223.347 287.351 245.027 287.394 Z"/>
    <polygon style="stroke: rgb(246, 199, 14); fill: rgb(255, 170, 0);" points="248.394 227.441 242.776 239.999 248.516 247.434 242.941 262.636" transform="matrix(0.988509, -0.151159, 0.151159, 0.988509, -34.217182, 39.947247)"/>
  </g>
</svg>