<?xml version="1.0" encoding="utf-8"?>
<svg viewBox="191.013 136.231 120.045 124.667" width="120.045" height="124.667" xmlns="http://www.w3.org/2000/svg">
  <g transform="matrix(0.983986, 0, 0, 0.982874, 8.061393, -61.431603)">
    <path style="stroke: rgb(0, 0, 0); fill: rgb(158, 207, 175);" d="M 307.321 277.435 C 311.275 319.506 183.124 318.792 185.976 277.435 L 186.551 244.08 L 187.126 239.192 C 187.701 234.303 188.852 224.527 198.341 216.092 C 207.83 207.657 225.658 200.564 244.444 201.139 C 263.231 201.714 282.976 209.958 293.424 218.68 C 303.871 227.402 305.021 236.604 305.596 241.204 L 306.171 245.805 L 307.321 277.435 Z"/>
    <path style="stroke: rgb(78, 64, 36); fill: rgb(125, 116, 68);" d="M 245.027 287.394 C 265.691 287.434 267.276 301.966 267.276 302.003 C 267.276 302.003 246.057 329.308 245.027 327.892 C 243.511 329.106 222.013 302.003 222.013 302.003 C 222.039 301.775 223.347 287.351 245.027 287.394 Z"/>
    <path stroke-width="0" d="M 225.411 202.737 C 230.428 201.295 234.029 201.631 237.537 202.737 C 240.839 203.779 244.185 205.757 246.024 208.807 C 248.138 212.309 249.315 219.375 248.45 223.373 C 247.697 226.855 245.863 228.984 242.387 231.871 C 237.174 236.201 221.931 241.448 216.923 245.224 C 213.918 247.49 214.233 249.984 211.669 251.293 C 208.556 252.885 202.411 253.809 198.735 252.912 C 195.374 252.091 192.092 249.945 190.247 246.843 C 188.084 243.203 186.787 236.14 187.822 231.467 C 188.847 226.843 191.689 223.001 196.31 218.923 C 202.645 213.333 217.898 204.897 225.411 202.737 Z M 285.715 239.64 C 288.03 239.355 290.572 239.405 292.991 240.45 C 295.829 241.676 299.173 244.345 301.478 247.328 C 303.981 250.564 306.189 255.177 307.137 259.467 C 308.095 263.804 308.284 269.268 307.137 273.225 C 306.083 276.858 304.433 280.426 301.074 282.532 C 296.921 285.135 287.106 286.464 282.482 285.769 C 279.063 285.255 276.873 284.004 274.802 281.317 C 272.06 277.762 269.341 269.84 269.144 264.323 C 268.956 259.063 271.189 252.813 273.185 248.947 C 274.788 245.843 277.02 243.628 279.248 242.068 C 281.238 240.674 283.454 239.919 285.715 239.64 Z" style="stroke-width: 2px; fill: rgb(115, 166, 133); stroke: rgb(212, 69, 25);"/>
    <path stroke="rgb(255,0,0)" stroke-width="0" d="M 231.463 206.691 C 235.714 206.106 238.96 207.659 240.759 210.333 C 242.942 213.578 242.614 222.648 241.568 226.519 C 240.798 229.367 239.253 230.912 237.122 232.588 C 234.636 234.543 229.354 235.168 227.017 237.039 C 225.139 238.543 225.752 240.712 223.38 242.299 C 219.491 244.903 206.256 249.58 202.362 248.774 C 200.086 248.303 199.594 246.563 198.725 244.323 C 197.461 241.066 196.35 233.207 197.108 229.755 C 197.652 227.279 198.212 226.662 200.745 224.495 C 205.776 220.193 224.402 207.663 231.463 206.691 Z" style="stroke: rgb(129, 151, 57); stroke-width: 2px; fill: rgb(209, 64, 189);"/>
    <path stroke-width="0" d="M 288.048 246.347 C 290.424 246.259 295.275 245.974 297.345 248.774 C 300.406 252.915 300.904 269.51 299.77 274.266 C 299.146 276.883 297.865 277.706 296.132 278.717 C 294.131 279.887 290.544 280.812 288.048 280.336 C 285.561 279.862 282.631 278.815 281.177 275.884 C 278.964 271.42 279.111 256.915 280.369 252.415 C 281.086 249.854 282.64 248.984 284.007 247.964 C 285.23 247.053 286.318 246.41 288.048 246.347 Z" style="stroke-width: 2px; fill: rgb(86, 106, 93); paint-order: stroke; mix-blend-mode: darken;"/>
  </g>
</svg>